<?xml version="1.0" encoding="iso-8859-1"?>
<!-- Uploaded to: SVG Repo, www.svgrepo.com, Generator: SVG Repo Mixer Tools -->
<svg fill="#000000" height="800px" width="800px" version="1.1" id="Capa_1" xmlns="http://www.w3.org/2000/svg" xmlns:xlink="http://www.w3.org/1999/xlink" 
	 viewBox="0 0 487.984 487.984" xml:space="preserve">
<g>
	<g>
		<path d="M188.176,233.176c-24.813,0-45-20.187-45-45s20.187-45,45-45s45,20.187,45,45S212.989,233.176,188.176,233.176z
			 M188.176,173.176c-8.271,0-15,6.729-15,15s6.729,15,15,15s15-6.729,15-15S196.447,173.176,188.176,173.176z"/>
	</g>
	<g>
		<path d="M299.808,344.808c-24.813,0-45-20.187-45-45s20.187-45,45-45s45,20.187,45,45S324.621,344.808,299.808,344.808z
			 M299.808,284.808c-8.271,0-15,6.729-15,15s6.729,15,15,15s15-6.729,15-15S308.079,284.808,299.808,284.808z"/>
	</g>
	<path d="M302.463,164.305l21.213,21.213L185.521,323.672l-21.213-21.213L302.463,164.305z"/>
	<g>
		<path d="M243.992,487.984l-40.306-41.36l-53.065,22.787l-21.411-53.636l-57.746,0.745l0.745-57.746l-53.636-21.411l22.787-53.065
			L0,243.992l41.36-40.306l-22.787-53.065l53.636-21.411l-0.745-57.746l57.746,0.745l21.411-53.636l53.065,22.787L243.992,0
			l40.306,41.36l53.065-22.787l21.411,53.636l57.746-0.745l-0.745,57.746l53.636,21.411l-22.787,53.065l41.36,40.306l-41.36,40.306
			l22.787,53.065l-53.636,21.411l0.745,57.746l-57.746-0.745l-21.411,53.636l-53.065-22.787L243.992,487.984z M210.787,410.926
			L243.992,445l33.206-34.074l43.717,18.772l17.638-44.187l47.573,0.614l-0.614-47.573l44.187-17.638l-18.772-43.717L445,243.992
			l-34.074-33.206l18.772-43.717l-44.187-17.638l0.614-47.573l-47.573,0.614l-17.638-44.187l-43.717,18.772l-33.206-34.074
			l-33.206,34.074L167.07,58.286l-17.638,44.187l-47.573-0.614l0.614,47.573L58.286,167.07l18.772,43.717l-34.074,33.206
			l34.074,33.206l-18.772,43.717l44.187,17.638l-0.614,47.573l47.573-0.614L167.07,429.7L210.787,410.926z"/>
	</g>
</g>
</svg>